<svg width="1063" height="233" viewBox="0 0 1063 233" fill="none" xmlns="http://www.w3.org/2000/svg">
<path fill-rule="evenodd" clip-rule="evenodd" d="M0.226562 160.678C0.226562 164.555 2.48087 168.091 5.99296 169.731C85.537 206.891 141.6 228.145 250.066 204.088C272.888 199.027 294.035 193.869 314.26 188.936C442.433 157.676 533.511 135.464 778.582 204.088C1071.51 286.113 1064.21 166.473 1061.92 128.989C1061.76 126.303 1061.62 124.038 1061.62 122.3V10.0003C1061.62 4.47749 1057.15 0.000336167 1051.62 0.000334394L10.2266 0C4.70372 -1.77339e-06 0.226562 4.47715 0.226562 10V160.678Z" fill="url(#paint0_linear_1808_198)"/>
<defs>
<linearGradient id="paint0_linear_1808_198" x1="447.734" y1="-0.0019463" x2="447.734" y2="266.367" gradientUnits="userSpaceOnUse">
<stop stop-color="#074973"/>
<stop offset="1" stop-color="#07678D"/>
</linearGradient>
</defs>
</svg>
